# xmcd
#
# Track frame offsets:
#	182
#	21775
#	45737
#	68225
#	99375
#	120912
#	147200
#	171250
#	195700
#
# Disc length: 2942 seconds
#
# Revision: 0
# Processed by: cddbd v1.5.1PL0 Copyright (c) Steve Scherf et al.
# Submitted via: dBpowerAMP V4.0
#
DISCID=750b7c09
DTITLE=Eltzegor - Herriade Berdean
DYEAR=1992
DGENRE=National Folk
TTITLE0=Arte-Antton
TTITLE1=HerrialdeBerdea
TTITLE2=Geltokian
TTITLE3=Kristof-Maddi
TTITLE4=Prima Gaiztoa
TTITLE5=Itusarena
TTITLE6=Oboaeren mugan
TTITLE7=Aitna
TTITLE8=Gozeskolak
EXTD=
EXTT0=
EXTT1=
EXTT2=
EXTT3=
EXTT4=
EXTT5=
EXTT6=
EXTT7=
EXTT8=
PLAYORDER=
